# xmcd
#
# Track frame offsets:
#	150
#	19663
#	34418
#	54340
#	70300
#	85570
#	99518
#	112798
#	129058
#	142768
#
# Disc length: 2326 seconds
#
# Revision: 1
# Processed by: cddbd v1.5.2PL0 Copyright (c) Steve Scherf et al.
# Submitted via: EZCDAudioConverter 1.0.6.1
#
DISCID=6f09140a
DTITLE=Wayne Toups and ZydeCajun - Down Home Live!
DYEAR=1992
DGENRE=Blues
TTITLE0=Saturday Night Special
TTITLE1=Zydeco Shoes
TTITLE2=Lacassine Special
TTITLE3=Mamou Two-Step
TTITLE4=I Went To The Dance
TTITLE5=Lafayette Waltz
TTITLE6=Bayou Pon Pon
TTITLE7=Sugar Bee
TTITLE8=Johnnie Can't Dance
TTITLE9=Pine Grove Blues
EXTD=
EXTT0=
EXTT1=
EXTT2=
EXTT3=
EXTT4=
EXTT5=
EXTT6=
EXTT7=
EXTT8=
EXTT9=
PLAYORDER=
